<?xml version="1.0" encoding="utf-8"?>
<!-- Svg Vector Icons : http://www.onlinewebfonts.com/icon -->
<!DOCTYPE svg PUBLIC "-//W3C//DTD SVG 1.1//EN" "http://www.w3.org/Graphics/SVG/1.1/DTD/svg11.dtd">
<svg version="1.1" xmlns="http://www.w3.org/2000/svg" xmlns:xlink="http://www.w3.org/1999/xlink" x="0px" y="0px" viewBox="0 0 1000 1000" enable-background="new 0 0 1000 1000" xml:space="preserve">
<metadata> Svg Vector Icons : http://www.onlinewebfonts.com/icon </metadata>
<g><path d="M987.7,584.5l2.3-154.2l-101.1-27.1c-8.9-35.1-21.9-68.5-39.5-99.2l55.1-88.9L797.1,104.3l-90.6,52.3c-30.4-18.2-63.2-32.4-98.1-42.3l-23.8-102L430.1,10l-27,101.2c-35,8.7-68.5,22-99.2,39.3l-89-55.1L104.1,202.9l52.4,90.5c-18.2,30.4-32.5,63.2-42.3,98.2l-102,23.8L10,569.8l101.2,26.9c8.7,35.3,22.1,68.5,39.4,99.5l-55.2,88.9l107.6,110.7l90.6-52.6c30.2,18.2,63.2,32.7,98,42.4l23.9,102.1L570,990l26.9-101.3c35.1-8.5,68.6-21.8,99.3-39.3l88.9,55.3l110.8-107.5l-52.6-90.7c18.2-30.4,32.7-63.2,42.4-98L987.7,584.5z M495.9,773.7C344.8,771.3,224.2,647,226.4,495.9C228.7,344.6,353,224,504.1,226.4c151.1,2.3,271.8,126.5,269.5,277.7C771.4,655.2,647,776,495.9,773.7z"/></g>
</svg>