<?xml version="1.0" encoding="utf-8"?>
<!-- Svg Vector Icons : http://www.onlinewebfonts.com/icon -->
<!DOCTYPE svg PUBLIC "-//W3C//DTD SVG 1.1//EN" "http://www.w3.org/Graphics/SVG/1.1/DTD/svg11.dtd">
<svg version="1.1" xmlns="http://www.w3.org/2000/svg" xmlns:xlink="http://www.w3.org/1999/xlink" x="0px" y="0px" viewBox="0 0 1000 1000" enable-background="new 0 0 1000 1000" xml:space="preserve">
<metadata> Svg Vector Icons : http://www.onlinewebfonts.com/icon </metadata>
<g><path d="M974.3,217.3L812.9,378.7l-141.2-50.4l-50.4-141.2L782.7,25.7C676.8-9.7,555.3,14.7,470.9,99c-82.8,82.8-107.8,201.3-75.2,305.8c-4.4,3.5-8.6,7.2-12.7,11.2L51.6,747.5c-55.5,55.5-55.5,145.4,0,200.9c55.5,55.5,145.4,55.5,200.9,0L584,616.9c4-4,7.8-8.3,11.2-12.7c104.5,32.6,223.1,7.6,305.8-75.2C985.3,444.7,1009.7,323.2,974.3,217.3z"/><g></g><g></g><g></g><g></g><g></g><g></g><g></g><g></g><g></g><g></g><g></g><g></g><g></g><g></g><g></g></g>
</svg>